<?xml version="1.0" encoding="UTF-8" standalone="no"?>
<svg width="100" height="100" xmlns="http://www.w3.org/2000/svg">
  <!-- Tier 3 Chicken (Heavy) -->
  <circle cx="50" cy="60" r="38" fill="#e5c070" />
  <!-- Body -->
  <circle cx="50" cy="32" r="25" fill="#e5c070" />
  <!-- Head -->
  <path d="M 45 25 L 25 10 L 35 15 L 20 5 L 40 12 L 30 0 L 50 15" stroke="red" stroke-width="3" fill="red" />
  <!-- Comb -->
  <circle cx="42" cy="32" r="3" fill="black" />
  <!-- Eye -->
  <path d="M 62 35 L 85 38" stroke="#e5c070" stroke-width="6" />
  <path d="M 38 35 L 15 38" stroke="#e5c070" stroke-width="6" />
  <!-- Wings -->
  <path d="M 35 60 L 15 55 C 10 80 30 80 35 60" fill="#d3ac52" opacity="0.7" />
  <path d="M 65 60 L 85 55 C 90 80 70 80 65 60" fill="#d3ac52" opacity="0.7" />
  <!-- Wings -->
  <path d="M 45 85 L 25 100 M 55 85 L 75 100" stroke="#c29e4a" stroke-width="5" />
  <!-- Feet -->
  <path d="M 50 70 L 40 60 L 70 45 L 50 70" fill="#d3ac52" opacity="0.5" />
  <!-- Tail -->
  <text x="50" y="50" text-anchor="middle" font-family="Arial" font-size="12" font-weight="bold" fill="#000">Tier 3</text>
</svg> 