<?xml version="1.0" encoding="UTF-8" standalone="no"?>
<svg width="100" height="100" xmlns="http://www.w3.org/2000/svg">
  <!-- Cow (60 min) -->
  <rect x="25" y="40" width="50" height="40" rx="10" fill="#f5f5f5" />
  <!-- Body -->
  <circle cx="50" cy="30" r="20" fill="#f5f5f5" />
  <!-- Head -->
  <path d="M 30 20 L 20 5 L 25 18" stroke="#f5f5f5" stroke-width="5" fill="#f5f5f5" />
  <path d="M 70 20 L 80 5 L 75 18" stroke="#f5f5f5" stroke-width="5" fill="#f5f5f5" />
  <!-- Ears/Horns -->
  <circle cx="42" cy="28" r="2" fill="black" />
  <circle cx="58" cy="28" r="2" fill="black" />
  <!-- Eyes -->
  <path d="M 40 33 L 47 33 L 43 38 Z" fill="#ffa9a9" />
  <!-- Nose -->
  <path d="M 25 80 L 25 95 M 40 80 L 40 95 M 60 80 L 60 95 M 75 80 L 75 95" stroke="#d9d9d9" stroke-width="5" />
  <!-- Legs -->
  <path d="M 35 50 L 30 35 M 65 50 L 70 35" stroke="black" stroke-width="1" />
  <!-- Spots -->
  <text x="50" y="60" text-anchor="middle" font-family="Arial" font-size="8" font-weight="bold" fill="#333">Cow (60 min)</text>
</svg> 